<?xml version="1.0" encoding="UTF-8"?>
<svg viewBox="0 0 392.2829 420.21921" xmlns="http://www.w3.org/2000/svg" xmlns:xlink="http://www.w3.org/1999/xlink">
 <defs>
  <filter id="af">
   <feGaussianBlur stdDeviation="4.1979"/>
  </filter>
  <linearGradient id="b" x1="874.29" x2="1018" y1="103.2" y2="-1.8159" gradientUnits="userSpaceOnUse">
   <stop stop-color="#dedfe1" offset="0"/>
   <stop stop-color="#f4f4f4" offset="1"/>
  </linearGradient>
  <linearGradient id="aa" x1="-1700.6" x2="-1583.1" y1="143.23" y2="144.49" gradientUnits="userSpaceOnUse">
   <stop stop-color="#a49a99" offset="0"/>
   <stop stop-color="#918886" stop-opacity=".3347" offset=".0818"/>
   <stop stop-color="#fff" stop-opacity=".5481" offset=".5147"/>
   <stop stop-color="#716967" stop-opacity=".1925" offset=".8979"/>
   <stop stop-color="#57504e" stop-opacity=".2762" offset="1"/>
  </linearGradient>
  <linearGradient id="z" x1="-1590.9" x2="-1700.3" y1="242.09" y2="240.84" gradientUnits="userSpaceOnUse">
   <stop stop-color="#777" offset="0"/>
   <stop stop-color="#ccc" offset=".25"/>
   <stop stop-color="#fff" offset=".5"/>
   <stop stop-color="#777" offset=".7653"/>
   <stop stop-color="#ccc" offset="1"/>
  </linearGradient>
  <linearGradient id="y" x1="2621" x2="2623" y1="555.75" y2="512.49" gradientTransform="matrix(.76398 0 0 .51939 -3651.7 -24.973)" gradientUnits="userSpaceOnUse">
   <stop stop-color="#ccc" offset="0"/>
   <stop stop-color="#ccc" stop-opacity="0" offset="1"/>
  </linearGradient>
  <linearGradient id="d">
   <stop stop-color="#fff" offset="0"/>
   <stop stop-color="#fff" stop-opacity="0" offset="1"/>
  </linearGradient>
  <linearGradient id="a">
   <stop stop-color="#f95" offset="0"/>
   <stop stop-color="#951901" offset=".1844"/>
   <stop stop-color="#caad1c" offset=".3688"/>
   <stop stop-color="#fff" stop-opacity="0" offset=".5"/>
   <stop stop-color="#e9ddaf" offset=".6383"/>
   <stop stop-color="#e9c6af" offset="1"/>
  </linearGradient>
  <linearGradient id="e">
   <stop stop-color="#222120" offset="0"/>
   <stop offset="1"/>
  </linearGradient>
  <linearGradient id="ac" x1="-1066.2" x2="-1075.3" y1="-729.07" y2="-812.93" gradientUnits="userSpaceOnUse">
   <stop stop-color="#5c4529" offset="0"/>
   <stop stop-color="#b0895a" offset="1"/>
  </linearGradient>
  <linearGradient id="c">
   <stop stop-color="#494b4c" offset="0"/>
   <stop stop-color="#494b4c" stop-opacity="0" offset="1"/>
  </linearGradient>
  <linearGradient id="ab" x1="-1096.7" x2="-1105.3" y1="-881.3" y2="-699.61" gradientUnits="userSpaceOnUse">
   <stop stop-color="#e4c08e" offset="0"/>
   <stop stop-color="#e4c08e" stop-opacity="0" offset="1"/>
  </linearGradient>
  <linearGradient id="x" x1="2618.9" x2="2621.2" y1="507.71" y2="522.04" gradientTransform="matrix(.76398 0 0 .49051 -3651.7 -13.4)" gradientUnits="userSpaceOnUse" xlink:href="#d"/>
  <linearGradient id="ae" x1="-1221.4" x2="-1222.9" y1="-750.43" y2="-727.72" gradientUnits="userSpaceOnUse" xlink:href="#e"/>
  <linearGradient id="ad" x1="-1254.4" x2="-1223.4" y1="-796.8" y2="-762" gradientUnits="userSpaceOnUse" xlink:href="#d"/>
  <radialGradient id="p" cx="-1795.9" cy="-141.33" r="52.969" gradientTransform="matrix(5.0486 .15329 -.18554 6.111 7345.6 1355.3)" gradientUnits="userSpaceOnUse">
   <stop stop-color="#f95" offset="0"/>
   <stop stop-color="#951901" offset=".1844"/>
   <stop stop-color="#caad1c" offset=".3688"/>
   <stop stop-color="#fff" stop-opacity="0" offset=".5"/>
   <stop stop-color="#e2ca70" offset=".6383"/>
   <stop stop-color="#ffff03" offset="1"/>
  </radialGradient>
  <radialGradient id="u" cx="-1248.8" cy="-751.49" r="7.302" gradientTransform="matrix(.74269 -.03515 .13643 1.3981 -217.81 263.53)" gradientUnits="userSpaceOnUse">
   <stop stop-color="#f55" offset="0"/>
   <stop stop-color="#d50d37" offset="1"/>
  </radialGradient>
  <radialGradient id="r" cx="-1221.6" cy="-760.75" r="12.514" gradientTransform="matrix(1 0 0 1.3979 0 302.7)" gradientUnits="userSpaceOnUse">
   <stop stop-color="#e92f45" offset="0"/>
   <stop stop-color="#e92f45" stop-opacity="0" offset="1"/>
  </radialGradient>
  <radialGradient id="o" cx="-2074.6" cy="-32.617" r="54.577" gradientTransform="matrix(.85845 .0699 -.13871 1.7036 -432.13 157.78)" gradientUnits="userSpaceOnUse" xlink:href="#a"/>
  <radialGradient id="n" cx="-2073.1" cy="-81.215" r="54.577" gradientTransform="matrix(.86129 0 0 .77888 -421.71 -17.384)" gradientUnits="userSpaceOnUse" xlink:href="#a"/>
  <radialGradient id="m" cx="-2095.8" cy="-68.256" r="54.577" gradientTransform="matrix(3.6549 .16611 -.06272 1.38 5428.9 371.78)" gradientUnits="userSpaceOnUse" xlink:href="#a"/>
  <radialGradient id="l" cx="-2117.8" cy="-64.611" r="54.577" gradientTransform="matrix(1.7282 1.1097 -.42083 .65541 1530.3 2328.8)" gradientUnits="userSpaceOnUse" xlink:href="#a"/>
  <radialGradient id="k" cx="-2146.3" cy="-75.14" r="54.577" gradientTransform="matrix(.86129 0 0 .77888 -278.5 -13.283)" gradientUnits="userSpaceOnUse" xlink:href="#a"/>
  <radialGradient id="j" cx="-2141.2" cy="-36.667" r="54.577" gradientTransform="matrix(1.4376 .07026 -.06405 1.3106 953.11 156.65)" gradientUnits="userSpaceOnUse" xlink:href="#a"/>
  <radialGradient id="i" cx="-2070.2" cy="-7.5078" r="54.577" gradientTransform="matrix(.86066 .03281 -.06936 1.8192 -356.02 153.61)" gradientUnits="userSpaceOnUse" xlink:href="#a"/>
  <radialGradient id="h" cx="-2081.9" cy="-42.337" r="54.577" gradientTransform="matrix(.86129 0 0 .77888 -354.2 77.878)" gradientUnits="userSpaceOnUse" xlink:href="#a"/>
  <radialGradient id="g" cx="-2110.5" cy="-1.838" r="54.577" gradientTransform="matrix(1.6471 -.03624 .02375 1.0793 1304.2 1.9491)" gradientUnits="userSpaceOnUse" xlink:href="#a"/>
  <radialGradient id="f" cx="-1630.5" cy="172.07" r="54.886" gradientTransform="matrix(3.3336 .02431 -.0109 .37354 3806.7 142.95)" gradientUnits="userSpaceOnUse" xlink:href="#a"/>
  <radialGradient id="w" cx="-1539" cy="-817.68" r="19.022" gradientTransform="matrix(1 0 0 1.1375 0 112.44)" gradientUnits="userSpaceOnUse" xlink:href="#e"/>
  <radialGradient id="v" cx="-1247.3" cy="-748.98" r="9.809" gradientTransform="matrix(1.5465 .03991 -.05713 2.2138 638.85 961)" gradientUnits="userSpaceOnUse" xlink:href="#c"/>
  <radialGradient id="t" cx="-1247.3" cy="-748.98" r="9.809" gradientTransform="matrix(1.5465 .03991 -.05713 2.2138 628.76 930.72)" gradientUnits="userSpaceOnUse" xlink:href="#c"/>
  <radialGradient id="s" cx="-1247.3" cy="-748.98" r="9.809" gradientTransform="matrix(1.5465 .03991 -.05713 2.2138 620.87 971.73)" gradientUnits="userSpaceOnUse" xlink:href="#c"/>
  <radialGradient id="q" cx="-1247.3" cy="-748.98" r="9.809" gradientTransform="matrix(1.5465 .03991 -.05713 2.2138 647.5 934.74)" gradientUnits="userSpaceOnUse" xlink:href="#c"/>
 </defs>
 <g transform="translate(-696.69 -42.296)">
  <path d="m861.41 62.375c-0.59642 0.01921-1.2132 0.09749-1.8125 0.25l-13.562 3.4688-17.719-2c-2.6887-0.30098-5.2158 0.71011-7.0625 2.5625 0.0557-0.10054 0.0977-0.21447 0.15625-0.3125-1.3071 1.1861-2.3102 2.7627-2.8438 4.5938l-41.75 1.3438c-2.6946 0.08764-5.0318 1.4455-6.5938 3.5312 0.0356-0.09281 0.0557-0.18999 0.0937-0.28125-1.4729 1.7849-2.3421 4.1464-2.25 6.75l0.12505 3.5938-44.688 11.375c-2.6002 0.66168-4.6067 2.4875-5.6875 4.8438 0.0142-0.0933 0.0146-0.18888 0.0312-0.28125-1.0547 2.0598-1.3997 4.5708-0.75 7.0938l52.625 204.41c1.3367 5.191 6.2681 8.4076 11.062 7.1875l80.031-20.375 3.5-0.125 9.0938 1 90.406 19.156c0.20898 0.0443 0.41659 0.0657 0.625 0.0937 4.6859 0.73591 9.2184-2.631 10.281-7.7188l43.156-206.59c1.0961-5.2471-1.9102-10.318-6.75-11.344l-35.562-7.5312c-0.80455-3.8794-3.8088-6.9096-7.6875-7.3438l-41.688-4.6562c-1.0176-4.338-4.7049-7.4834-9-7.3438l-28.562 0.9375-14.906-3.1562c-1.712-0.36273-3.4011-0.16169-4.9375 0.46875-1.8201-2.3128-4.535-3.6852-7.375-3.5938z" filter="url(#af)" opacity=".5"/>
  <g transform="matrix(.89695 -.44213 .44213 .89695 -89.155 424.81)">
   <path transform="matrix(.97828,.20727,-.20449,.97887,0,0)" d="m868.66-117.03h140.44a8.93 9.6758 0 0 1 8.93 9.6758v211.07a8.93 9.6758 0 0 1 -8.93 9.6758h-140.44a8.93 9.6758 0 0 1 -8.93 -9.6758v-211.07a8.93 9.6758 0 0 1 8.93 -9.6758" fill="url(#b)"/>
   <path d="m866.63 67.088c-1.8567 1.3812-3.2798 3.481-3.8125 6.0312l-43.156 206.59c-1.0961 5.2471 1.9102 10.318 6.75 11.344l137.41 29.094c3.4158 0.72373 6.7932-0.75297 8.875-3.5312-1.9574 1.441-4.4033 2.0549-6.875 1.5312l-137.41-29.094c-4.8398-1.0254-7.8461-6.0966-6.75-11.344l43.156-206.59c0.31735-1.5192 0.96566-2.8845 1.8125-4.0312z" fill="#fff"/>
  </g>
  <g transform="matrix(.97103 -.23896 .23896 .97103 -87.248 217.47)">
   <path transform="matrix(.97828,.20727,-.20449,.97887,0,0)" d="m868.66-117.03h140.44a8.93 9.6758 0 0 1 8.93 9.6758v211.07a8.93 9.6758 0 0 1 -8.93 9.6758h-140.44a8.93 9.6758 0 0 1 -8.93 -9.6758v-211.07a8.93 9.6758 0 0 1 8.93 -9.6758" fill="url(#b)"/>
   <path d="m866.63 67.088c-1.8567 1.3812-3.2798 3.481-3.8125 6.0312l-43.156 206.59c-1.0961 5.2471 1.9102 10.318 6.75 11.344l137.41 29.094c3.4158 0.72373 6.7932-0.75297 8.875-3.5312-1.9574 1.441-4.4033 2.0549-6.875 1.5312l-137.41-29.094c-4.8398-1.0254-7.8461-6.0966-6.75-11.344l43.156-206.59c0.31735-1.5192 0.96566-2.8845 1.8125-4.0312z" fill="#fff"/>
  </g>
  <g transform="matrix(.99527 -.09716 .09716 .99527 -47.642 83.781)">
   <path transform="matrix(.97828,.20727,-.20449,.97887,0,0)" d="m868.66-117.03h140.44a8.93 9.6758 0 0 1 8.93 9.6758v211.07a8.93 9.6758 0 0 1 -8.93 9.6758h-140.44a8.93 9.6758 0 0 1 -8.93 -9.6758v-211.07a8.93 9.6758 0 0 1 8.93 -9.6758" fill="url(#b)"/>
   <path d="m866.63 67.088c-1.8567 1.3812-3.2798 3.481-3.8125 6.0312l-43.156 206.59c-1.0961 5.2471 1.9102 10.318 6.75 11.344l137.41 29.094c3.4158 0.72373 6.7932-0.75297 8.875-3.5312-1.9574 1.441-4.4033 2.0549-6.875 1.5312l-137.41-29.094c-4.8398-1.0254-7.8461-6.0966-6.75-11.344l43.156-206.59c0.31735-1.5192 0.96566-2.8845 1.8125-4.0312z" fill="#fff"/>
  </g>
  <path transform="matrix(.97828,.20727,-.20449,.97887,0,0)" d="m868.66-117.03h140.44a8.93 9.6758 0 0 1 8.93 9.6758v211.07a8.93 9.6758 0 0 1 -8.93 9.6758h-140.44a8.93 9.6758 0 0 1 -8.93 -9.6758v-211.07a8.93 9.6758 0 0 1 8.93 -9.6758" fill="url(#b)"/>
  <path d="m866.63 67.088c-1.8567 1.3812-3.2798 3.481-3.8125 6.0312l-43.156 206.59c-1.0961 5.2471 1.9102 10.318 6.75 11.344l137.41 29.094c3.4158 0.72373 6.7932-0.75297 8.875-3.5312-1.9574 1.441-4.4033 2.0549-6.875 1.5312l-137.41-29.094c-4.8398-1.0254-7.8461-6.0966-6.75-11.344l43.156-206.59c0.31735-1.5192 0.96566-2.8845 1.8125-4.0312z" fill="#fff"/>
  <path d="m923.76 178c2.5718-5.8241 6.3259-11.379 14.603-9.4916s13.392 9.4632 7.6572 20.977-20.722 14.507-30.595 25.077c-4.3164-13.805-16.526-22.998-16.704-35.86s7.715-17.472 15.992-15.585 9.2531 8.5197 9.0463 14.883z" fill="#d40000"/>
  <g font-family="cinecaption" font-size="89.664" letter-spacing="0" word-spacing="0">
   <g transform="matrix(.6134 -.19609 .14166 .44314 539.47 365.13)">
    <g transform="matrix(.50208 0 0 .695 -273.72 -807.88)">
     <path d="m1371.7 650.48c5 13.75 11.25 20 25 25-13.75 5-20 11.25-25 25-5-13.75-11.25-20-25-25 13.75-5 20-11.25 25-25z" fill="#d40000"/>
    </g>
    <path d="m416.09-408.39c-1.445 3e-5 -2.3222 0.66268-2.6112 1.9829-3.0964 12.559-6.5336 25.077-10.332 37.568h-0.99562c-1.6101 0-2.3894 0.66264-2.3482 1.9829 0.0826 1.2864 0.84679 1.9402 2.2918 1.9403h6.1803c1.5276-1e-5 2.2918-0.62375 2.2918-1.8763-0.0826-1.3541-0.86188-2.0469-2.3482-2.0469 1.0627-3.6532 1.6685-5.7415 1.841-6.3751h10.238c0.48823 2.2086 0.98868 4.4031 1.484 6.5884h-0.75141c-1.5276 0-2.3069 0.63253-2.3482 1.9189 0.12384 1.2864 0.88807 1.9402 2.2918 1.9403h6.8754c1.5688-1e-5 2.333-0.66265 2.2918-1.9829-4e-5 -1.2526-0.77934-1.8763-2.3482-1.8763h-1.052c-2.9726-12.458-5.7283-25.179-8.2467-38.144-0.12387-1.0832-0.91824-1.6204-2.4045-1.6204zm-0.31935 11.833c1.1696 5.734 2.3733 11.385 3.588 16.972h-7.9837c1.9167-7.2729 3.3866-12.967 4.3958-16.972z" fill="#d40000"/>
   </g>
   <g transform="matrix(.63453 .10993 -.07941 .4584 531.52 210.58)" fill="#d40000">
    <path transform="scale(.85,1.1765)" d="m586.23-295.03c0.71655-3.692 2.1494-7.384 7.1644-7.384 5.0148 0 8.9553 3.692 7.1642 11.076s-10.03 11.076-14.329 18.46c-4.2985-7.384-12.537-11.076-14.328-18.46s2.1494-11.076 7.1642-11.076 6.4479 3.692 7.1642 7.384z"/>
    <path d="m499.39-408.39c-1.445 3e-5 -2.3222 0.66268-2.6112 1.9829-3.0964 12.559-6.5336 25.077-10.332 37.568h-0.99562c-1.6101 0-2.3894 0.66264-2.3482 1.9829 0.0826 1.2864 0.84679 1.9402 2.2918 1.9403h6.1803c1.5276-1e-5 2.2918-0.62375 2.2918-1.8763-0.0826-1.3541-0.86188-2.0469-2.3482-2.0469 1.0627-3.6532 1.6685-5.7415 1.841-6.3751h10.238c0.48823 2.2086 0.98868 4.4031 1.484 6.5884h-0.75141c-1.5276 0-2.3069 0.63253-2.3482 1.9189 0.12384 1.2864 0.88807 1.9402 2.2918 1.9403h6.8754c1.5688-1e-5 2.333-0.66265 2.2918-1.9829-4e-5 -1.2526-0.77934-1.8763-2.3482-1.8763h-1.052c-2.9726-12.458-5.7283-25.179-8.2467-38.144-0.12387-1.0832-0.91824-1.6204-2.4045-1.6204zm-0.31935 11.833c1.1696 5.734 2.3733 11.385 3.588 16.972h-7.9837c1.9167-7.2729 3.3866-12.967 4.3958-16.972z"/>
   </g>
   <g transform="matrix(.64398 0 0 .46523 494.3 270.07)">
    <g transform="matrix(.50208 0 0 .695 -181.49 -528.13)">
     <path d="m1260.1 297.96c9.0143-2.0031 9.984-7.2828 10.664-16.992-1.5664 2.5939-4.4141 4.5082-9.0624 4.4922-7.6407-0.0263-12.759-4.4697-10.938-14.062 1.836-9.6715 15.586-13.421 21.836-23.438 6.25 10.016 20 13.766 21.836 23.438 1.821 9.5928-3.086 14.035-10.938 14.062-4.6484 0.016-7.496-1.8982-9.0624-4.4922 0.68 9.7094 1.6497 14.989 10.664 16.992h-25z"/>
    </g>
    <path d="m458.59-408.39c-1.445 3e-5 -2.3222 0.66268-2.6112 1.9829-3.0964 12.559-6.5336 25.077-10.332 37.568h-0.99562c-1.6101 0-2.3894 0.66264-2.3482 1.9829 0.0826 1.2864 0.84679 1.9402 2.2918 1.9403h6.1803c1.5276-1e-5 2.2918-0.62375 2.2918-1.8763-0.0826-1.3541-0.86188-2.0469-2.3482-2.0469 1.0627-3.6532 1.6685-5.7415 1.841-6.3751h10.238c0.48823 2.2086 0.98868 4.4031 1.484 6.5884h-0.75141c-1.5276 0-2.3069 0.63253-2.3482 1.9189 0.12384 1.2864 0.88807 1.9402 2.2918 1.9403h6.8754c1.5688-1e-5 2.333-0.66265 2.2918-1.9829-4e-5 -1.2526-0.77934-1.8763-2.3482-1.8763h-1.052c-2.9726-12.458-5.7283-25.179-8.2467-38.144-0.12387-1.0832-0.91824-1.6204-2.4045-1.6204zm-0.31935 11.833c1.1696 5.734 2.3733 11.385 3.588 16.972h-7.9837c1.9167-7.2729 3.3866-12.967 4.3958-16.972z"/>
   </g>
   <g transform="matrix(.6359 .1017 -.07347 .45939 465.47 206.55)">
    <path transform="scale(.85,1.1765)" d="m636.23-302.42c-3.4935 0-6.329 2.9772-6.329 6.6456 0.0307 2.3086 1.2216 4.2594 2.4614 6.1149-1.3819-1.0456-2.9176-1.678-4.5712-1.6845-3.4937 0-6.3291 2.9772-6.3291 6.6456s2.8354 6.6456 6.3291 6.6456c2.8304-0.0474 5.0938-2.0276 7.3182-3.692-0.39814 4.9717-1.2078 7.7632-5.9117 8.8608h14.065c-4.7039-1.0976-5.5136-3.889-5.9117-8.8608 2.1986 1.8845 4.5045 3.4831 7.3182 3.692 3.4935 0 6.329-2.9772 6.329-6.6456s-2.8354-6.6456-6.329-6.6456c-1.6961-1.7e-4 -3.1611 0.78028-4.5712 1.6845 1.4031-1.8364 2.3266-3.8178 2.4613-6.1149 0-3.6684-2.8354-6.6456-6.3291-6.6456z"/>
    <path d="m541.88-408.39c-1.445 3e-5 -2.3222 0.66268-2.6112 1.9829-3.0964 12.559-6.5336 25.077-10.332 37.568h-0.99562c-1.6101 0-2.3894 0.66264-2.3482 1.9829 0.0826 1.2864 0.84679 1.9402 2.2918 1.9403h6.1803c1.5276-1e-5 2.2918-0.62375 2.2918-1.8763-0.0826-1.3541-0.86188-2.0469-2.3482-2.0469 1.0627-3.6532 1.6685-5.7415 1.841-6.3751h10.238c0.48823 2.2086 0.98868 4.4031 1.484 6.5884h-0.75141c-1.5276 0-2.3069 0.63253-2.3482 1.9189 0.12384 1.2864 0.88807 1.9402 2.2918 1.9403h6.8754c1.5688-1e-5 2.333-0.66265 2.2918-1.9829-4e-5 -1.2526-0.77934-1.8763-2.3482-1.8763h-1.052c-2.9726-12.458-5.7283-25.179-8.2467-38.144-0.12387-1.0832-0.91824-1.6204-2.4045-1.6204zm-0.31935 11.833c1.1696 5.734 2.3733 11.385 3.588 16.972h-7.9837c1.9167-7.2729 3.3866-12.967 4.3958-16.972z"/>
   </g>
   <g transform="matrix(.63453 .10993 .07941 -.4584 673.69 67.313)" fill="#d40000">
    <path transform="scale(.85,1.1765)" d="m586.23-295.03c0.71655-3.692 2.1494-7.384 7.1644-7.384 5.0148 0 8.9553 3.692 7.1642 11.076s-10.03 11.076-14.329 18.46c-4.2985-7.384-12.537-11.076-14.328-18.46s2.1494-11.076 7.1642-11.076 6.4479 3.692 7.1642 7.384z"/>
    <path d="m499.39-408.39c-1.445 3e-5 -2.3222 0.66268-2.6112 1.9829-3.0964 12.559-6.5336 25.077-10.332 37.568h-0.99562c-1.6101 0-2.3894 0.66264-2.3482 1.9829 0.0826 1.2864 0.84679 1.9402 2.2918 1.9403h6.1803c1.5276-1e-5 2.2918-0.62375 2.2918-1.8763-0.0826-1.3541-0.86188-2.0469-2.3482-2.0469 1.0627-3.6532 1.6685-5.7415 1.841-6.3751h10.238c0.48823 2.2086 0.98868 4.4031 1.484 6.5884h-0.75141c-1.5276 0-2.3069 0.63253-2.3482 1.9189 0.12384 1.2864 0.88807 1.9402 2.2918 1.9403h6.8754c1.5688-1e-5 2.333-0.66265 2.2918-1.9829-4e-5 -1.2526-0.77934-1.8763-2.3482-1.8763h-1.052c-2.9726-12.458-5.7283-25.179-8.2467-38.144-0.12387-1.0832-0.91824-1.6204-2.4045-1.6204zm-0.31935 11.833c1.1696 5.734 2.3733 11.385 3.588 16.972h-7.9837c1.9167-7.2729 3.3866-12.967 4.3958-16.972z"/>
   </g>
  </g>
 </g>
 <path transform="matrix(1.6207 0 0 3.1686 2813 -348.13)" d="m-1529.9 167.74c0 0.87105-24.573 1.5772-54.886 1.5772s-54.886-0.70613-54.886-1.5772 24.573-1.5772 54.886-1.5772 54.886 0.70613 54.886 1.5772z" fill="#e6e6e6" stroke="#b3b3b3" stroke-width=".69912"/>
 <path transform="matrix(1.5843 0 0 1.5843 2849.3 2.7471)" d="m-1700.1 113.04s37.163 4 55.762 4c29.306 0 55.762-2 55.762-2l-4.461 136.29s-35.6 5.6153-53.531 5.3531c-16.192-0.23676-48.178-6.2453-48.178-6.2453z" fill="url(#aa)" stroke="#b3b3b3"/>
 <path transform="matrix(1.5843 0 0 1.5843 2849.3 2.7471)" d="m-1696.8 171.68 2.3126 59.062s31.995 6.0132 48.187 6.25c17.931 0.26219 53.531-5.3438 53.531-5.3438l1.9063-58.094c-5.9605 0.41319-28.002 1.8125-53.219 1.8125-16.286 0-45.382-2.9247-52.719-3.6875z" fill="url(#p)" opacity=".6"/>
 <path transform="matrix(1.5843 0 0 1.5843 2849.3 2.7471)" d="m-1696 229.53 0.8437 21.406s31.996 6.0132 48.188 6.25c17.931 0.26218 53.531-5.3438 53.531-5.3438l0.7188-22.312h-0.6562l-0.063 2.3125s-35.6 5.6059-53.531 5.3438c-16.192-0.23676-48.188-6.25-48.188-6.25l-0.062-1.4062h-0.7812z" fill="url(#z)"/>
 <path transform="matrix(1.5843 0 0 1.5843 2849.3 2.7471)" d="m-1594.4 244.91c-4.1956 3.6086-25.075 6.3463-50.184 6.3463-24.282 0-44.605-2.5574-49.707-5.9892 0.1 0.494 0.191 0.87646 0.191 0.87646s13.068 6.9913 50.757 6.7845c32.576-0.17879 48.489-6.0703 48.489-6.0703s0.2325-0.80714 0.4537-1.9477z" fill="url(#y)" fill-rule="evenodd"/>
 <path transform="matrix(1.5843 0 0 1.5843 2849.3 2.7471)" d="m-1594.4 233.15c-4.1956 3.4079-25.075 5.9934-50.184 5.9934-24.282 0-44.605-2.4152-49.707-5.6562 0.1 0.46655 0.191 0.82773 0.191 0.82773s13.068 6.6025 50.757 6.4072c32.576-0.16883 48.489-5.7328 48.489-5.7328s0.2325-0.76225 0.4537-1.8394z" fill="url(#x)" fill-rule="evenodd"/>
 <g transform="matrix(1.5843 0 0 1.5843 3785.9 419.9)">
  <path d="m-2216.4-51.86 18.474-27.168 14.128 7.6071-14.671 25.538z" fill="url(#o)" opacity=".3"/>
  <path d="m-2216.4-93.699 19.018 15.214 14.671 7.0637-16.844-15.758z" fill="url(#n)" opacity=".3"/>
  <path d="m-2218.1-93.699-21.735 23.908 23.365 18.474 18.474-27.712z" fill="url(#m)" opacity=".3"/>
 </g>
 <g transform="matrix(1.5843 0 0 1.5843 3546.1 385.92)">
  <path d="m-2096.4-34.965-13.247-30.065 13.938-7.9482 13.88 25.976z" fill="url(#l)" opacity=".3"/>
  <path d="m-2133.4-55.563 24.558-9.6404 13.766-8.6969-22.29 5.9322z" fill="url(#k)" opacity=".3"/>
  <path d="m-2132.7-55.758 8.7543 31.102 28.05-10.022-13.708-30.353z" fill="url(#j)" opacity=".3"/>
 </g>
 <g transform="matrix(1.5843 0 0 1.5843 3651 239)">
  <path d="m-2145.2 85.242 3.324-32.686 16.045-0.03033-0.7541 29.442z" fill="url(#i)" opacity=".3"/>
  <path d="m-2165.1 48.442 23.966 4.3341 16.265-0.76674-22.313-5.846z" fill="url(#h)" opacity=".3"/>
  <path d="m-2166.6 49.217-7.7427 31.369 29.34 5.1335 3.0655-33.164z" fill="url(#g)" opacity=".3"/>
 </g>
 <path transform="matrix(1.5843 0 0 3.1686 2755.3 -257.84)" d="m-1529.9 167.74c0 0.87105-24.573 1.5772-54.886 1.5772s-54.886-0.70613-54.886-1.5772 24.573-1.5772 54.886-1.5772 54.886 0.70613 54.886 1.5772z" fill="url(#f)" opacity=".5"/>
 <g transform="translate(1300.6 933.62)">
  <path d="m-1237.6713-786.89397c.3492-.24398-.1925-.36519-1.0985.14889-.8067.27684-1.8434.97617-2.0636.8236-.8895.16283-.8141-1.23165-1.6617-.86888-.8577-.26973-.6181.84866-1.5547.95028-.6605.49069-.9646-1.44259-1.4519-.93259-.2476.32324-1.0633-.38341-1.4444.10278-.9851.13846-1.575.47289-1.9427-4e-005-.7756.45159-1.5453,1.24432-1.7818.84107 .3857.13251.3408,1.94822.8029,6.97476 .062,2.73567-.3292,4.97333-.336,8.31033 .1837,2.91135-.1019,5.40894.3421,7.85126 .3406,2.13349 1.0502,5.45553.8281,7.73632 .4796,2.70681-.131,4.93635.3399,7.59897 .3442,2.2933-.1355,5.26545-.4483,7.63045-.255,2.62178.1473,5.15847.5166,7.05278 .2693,5.17671.8244,7.4819.7533,7.97394-.05.49608 1.1744-.4428 4.5545-1.01086 1.3008-.68405 2.9083.17826 5.013.26323 1.4393-.70834 3.3029-1.02309 5.0174-.77394 1.2081-.2042 3.1821-.97666 4.9322-.7339 1.4452-.66907 2.9759-.71514 4.9506-.7535 1.3414-.0569 3.2954-.93612 4.6584-1.60675 2.1326-.57917 2.7087.11665 4.5167-.23913 3.0698.0517 4.8876-1.17131 5.2868-1.20142 .2469.39338.5907.0121 1.9047-1.76009 .8438-.63835.8148-1.35017 1.0144-2.46165 .5087-1.30754.7728-2.81408 1.4512-3.23623 .9068-.77035 1.2228-1.44036 1.826-1.81318 .6544-.38965 1.0626-2.45476 1.972-3.32901 .9228-1.0514 1.4086-1.52124 1.5543-2.57979 .3768-1.38172.7022-.90159.89-2.01996 1.2426-1.2201 2.5135-3.11429 2.126-3.23837 .048-.49636-2.385-1.55693-5.7191-3.84807-1.8065-.99139-2.1523-2.73038-4.4509-4.34257-1.3992-.98378-3.4129-2.28774-5.2494-4.3355-1.4064-1.82621-3.4542-3.24526-5.5074-4.45796-2.0363-1.18505-4.026-3.75677-5.3161-5.09163-1.3872-1.60505-2.8178-1.97491-4.5286-3.86522-2.2831-1.50889-4.5198-3.90011-5.6113-5.25873-2.77-2.9492-4.5875-4.26094-4.5644-3.76177" fill="url(#ae)"/>
  <path d="m-1237.75-787.09375c-.205.003-.5783.0867-1.0312.34375-.8067.27684-1.8424.99632-2.0626.84375-.8895.16284-.8086-1.23777-1.6562-.875-.8577-.26973-.6259.83588-1.5625.9375-.6605.49069-.9502-1.4475-1.4375-.9375-.2476.32324-1.0564-.36119-1.4375.125-.985.13846-1.5698.47293-1.9375,0-.026,1.07277-.018,2.15042.1875,3.3125 .3442,2.2933-.156,5.26-.4687,7.625-.2551,2.62178.1619,5.13694.5312,7.03125 .2693,5.17671.8211,7.50796.75,8-.05.49608 1.1824-.46319 4.5625-1.03125 1.3008-.68405 2.8953.19628 5,.28125 1.4393-.70834 3.3167-1.0304 5.0313-.78125 1.2081-.2042 3.1873-.99276 4.9374-.75 1.4453-.66907 2.9628-.71164 4.9376-.75 1.3414-.0569 3.2932-.92312 4.6562-1.59375 2.1326-.57917 2.7233.10578 4.5312-.25 .2852.005.5492-.016.8126-.0312-1.1318-.98045-2.4228-1.82825-3.7188-2.59375-2.0363-1.18504-4.0224-3.75889-5.3125-5.09375-1.3873-1.60504-2.8205-1.95344-4.5313-3.84375-2.2831-1.5089-4.5335-3.92262-5.625-5.28125-2.77-2.94919-4.5855-4.24917-4.5624-3.75l-.5-.75c.1745-.12199.1112-.19096-.094-.1875z" fill="url(#ad)"/>
  <path d="m-1233.9-785.97 299.08-10.39s14.179 3.1306 16.203 13.592c2.3086 11.932-8.5569 19.988-8.5569 19.988l-280.91 33.189s9.2928-10.87 8.3198-17.148c-1.0851-7.0021-9.9457-10.105-14.633-15.419-6.7873-7.6952-19.507-23.812-19.507-23.812z" fill="url(#ac)"/>
  <path d="m-938.39-796.35-299.06 10.375s12.713 16.117 19.5 23.812c4.687 5.314 13.54 8.4354 14.625 15.438 0.973 6.2783-8.3126 17.125-8.3126 17.125l4.4063-0.53125c1.1613-1.3951 8.8082-10.774 7.9063-16.594-1.0852-7.0021-9.938-10.123-14.625-15.438-6.7873-7.6952-19.5-23.812-19.5-23.812l295.56-10.25c-0.25725-0.0668-0.5-0.125-0.5-0.125z"/>
  <path transform="matrix(1 0 0 1.4419 289.07 423.41)" d="m-1520.174-818.17082c.3727,1.16088.06,4.00168-.1582,4.77596-.2634.82566-.4431,1.51522-1.2192,2.95902-.4611,1.76384-.3292,2.45359-1.2049,3.97684-.9598.86604-2.5611,2.36516-2.9874,3.44171-.875,1.52856-1.7718,1.52465-2.7749,2.8483-.9984.34124-1.9066,1.34816-3.1729,2.42467-1.4951.3-2.117.63909-3.0712,1.23285-1.6604.3285-3.6943.49094-4.6507.35183-1.1404.43276-2.0913-.53043-3.1483-.40629-.9306-.078-3.3266-1.77738-4.3382-1.91489-1.5033-.32309-2.0567-.705-2.6832-1.52786-.9107-1.30922-2.2667-1.93447-3.5096-2.92881-1.1189-.66832-1.0606-2.73563-1.4329-3.53715-.2579-1.33904-.8006-1.93748-1.6308-3.19411-.097-.92377-1.7901-2.99029-1.6099-4.39354-.2482-1.77112-.3057-2.40099-.048-4.12527-.1778-.8946.6015-1.69176.7672-3.46318-.136-1.56283-.3966-1.96487.403-3.3336 .036-1.18507 1.4498-2.4662 2.1355-4.09547 .2692-1.35031.2105-2.22548 1.4164-3.36982 1.2162-.84749 2.1397-1.82936 3.0373-3.13423 .6776-1.08516 1.8334-.6908 3.3922-1.18682 1.5336-.81031 2.428-1.02796 3.3808-1.61912 .9633-.63995 3.4713-1.22818 4.6542-.76868 1.2627.49038 3.0484.28714 3.9118.53882 .9157.50567 1.7132,1.57816 3.1754,1.82919 .7861.74783 2.0554,1.29999 3.4808,2.17163 .661,1.07612 1.8098,1.98033 2.9605,2.68981 .4902,1.28251 1.7512,1.48535 2.2957,3.14054 .8714,1.52729.2492,2.18081 1.0041,3.73802 .093,1.51879 1.0325,2.92293 1.4502,3.81419 .5819,1.44702-.066,2.83581-.2973,3.76974 .3977.053.3819-.39809-.018-.39891 .2853-.35041.8001,1.01653.559.61749 .1356.4704.2067.42709.03-.0214 .203.43083.1675.43479-.091.0533 .068.49262.081-.39973.09-.89962 .3878-.1227-.1526-.56153-.244-.0748-.061-.49416-.5559.51893-.2697.16961-.4.00038-.1081.10172.2311-.1634" fill="url(#w)"/>
  <path d="m-1238.2853-750.95743c.3463,1.61548.7111,2.30198.098,2.72706-.6375.47023.1801,1.59127-.327,3.45861 .2278,1.83673-.1974,2.84504-1.0311,3.67906-.327,1.37089-2.2518,1.57039-1.9435,2.64232-.782.77692-.3487,1.33313-.4216,2.04202-.8666.77204-1.3137,1.55032-2.481,2.47885-.7404.92087-.012-.2343-.6956.87951-.9038-.38447-2.3935-.11499-2.3613-.44897-.2219-.14675-1.9764.88256-2.003.74097-.424-.73214-1.4645-1.8356-1.6293-2.47013-1.2607-.47389-1.5508-.41867-2.2305-.6248 .012-.76101-.948-2.04985-1.3571-2.27224-.2152-.0476-1.0728-4.12144-.9372-4.26086-.4324-1.67935.5376-1.5583-.065-1.99178-.5245-.46854-.67-1.91217-1.1135-3.1776-.3511-2.09732.2707-2.31587-.074-3.45073-.4682-1.22633-.2291-1.8765.2222-2.88279-.1608-.65856-.3463-2.42348.3888-4.0968 .454-.60865.3725-2.721.9444-3.49001-.081-.52532-.5212-.41839.6066-1.51025 .7012-1.37136.7115-1.07298 1.1463-2.84018 .014-.38003 1.5508-1.17325 2.0106-2.1314 1.2797-.49719 2.1807.50247 2.1813-.31087 .3481.10883 2.1848-2.10809 2.2664-1.50123 1.1263.66451 1.3502.56662 1.9092,1.42722 .5412-.23373.5697.77606 1.5233,1.59383 .6151,1.23735-.1494-.0531 1.0939.75831 .1037,1.51326.4912,1.52558 1.2855,2.732-.288,1.17346.8576.14672 1.3944,2.12196 .1501,1.85416.8611,3.26025 1.2989,3.90823 .5789,1.37329.4138,1.27735.6759,2.69292-.2467,1.26096-.7936,1.55177-.972,3.00191 .064.69174.4449-1.15147.3669-.50248 .5407-.74296.6167,1.07498-.032.62163 .013-.26855.8516.16568.8319.45072-.255.86372.4727-.0795-.044.0619 .551.23486-.1273-1.00068.042-.78562 .728-.16238-.601-.33494-.1279-.099-.5667-.46474-1.2267.43987-.9983.80516 .2088-.4348.483.62237.2469-.0397" fill="url(#v)"/>
  <path d="m-1242.3923-747.60658c.4876.58333.3671.50802.023,1.04509-.3519.55463-.1117,1.07125-.1845,2.06184 .2787.39286.2891,1.04496-.4706,1.36817-.4568.67286-1.4382.34488-.9965.91548-.4847-.0652-.7752.86026-.5509.96439-.5835.64871-.071.25304-1.0154.61705-.6995.2684.048-.56789-.6185-.0416-.228-.29786-1.3944-.41939-1.4131-.17959 .1742-.08-1.34,1.34365-1.1547,1.01304-.1658-.64607-.5891-1.541-.9558-1.64514-.9264.0558-.2369.28286-.8248-.0594 .1143.0521-.4038-.76165-.8769-1.05689-.1041.35327-.7433-1.54795-.3908-1.46619-.4728-.41985.5673-.29652-.017-.66712-.5332.0342-.9285-.68192-1.0196-.85482-.2554-.4493.2299-1.56654-.2152-1.81302-.034-.23287.3114-.0798.6665-.81851 .2034-.32494-.9545-.83791-.2493-1.48873-.036-.33446 1.0001-1.27517 1.0192-1.57366 .192-.42963-.2471-.64063.3361-.69569 .295-.88535.5807-.79956.576-1.27469-.2761-.0368.4135-.88178.8616-.97029 .8634-.51128 1.7482.58776 1.492.0832-.073.2102.6317-.74035.7772-.15449 .758-.0747.6067-.14452 1.0398.52815 0-.0395 1.1232.0233 1.3679.45328 .6382.5025-.3038.0154.5728.0411-.1527.85097.2869.5562.7247,1.39642 .052.19367-.2522-.0129.3004.94507-.064.39563.6984.57847 1.1783,1.05464 .054.36722-.52,1.07299-.096,1.4915-.075.12507-.072.94619-.3962,1.26615 .3284.33651.019-.30811-.01-.42776 .1908-.63467.5778.28748.2442-.25916 .1932-.39511.4957.46069.1985.67371-.2146.69584.4067-.58346-.031-.20763 .5723.2562.1086-.88929.095-.45888 .5605.25335-.1167.12241.4212.35461-.4829.12637-.5835-.0325-.6773-.14114 .3481-.4013.1184.59775.2798.26934" fill="url(#u)" opacity=".7164"/>
  <path d="m-1250.6562-786.84375c-1.2496.002-2.8401.65167-3.5626,1.34375-.9528.85242-1.8414,1.17534-3.375,2.34375-1.5587.71523-2.7286.15401-3.4062,1.71875-.8976,1.88155-1.815,3.27798-3.0312,4.5-1.206,1.65007-1.1371,2.92792-1.4063,4.875-.041.14031-.079.26945-.125.40625 .2189,1.24826.6617,3.21665.8125,3.25 .4091.22239 1.3557,1.52024 1.3438,2.28125 .6796.20613.958.15111 2.2187.625 .1648.63453 1.2323,1.73661 1.6563,2.46875 .026.14159 1.778-.89675 2-.75-.032.33398 1.4399.053 2.3437.4375 .3273-.53327.3476-.49885.3437-.46875 .017.009.066-.0609.3438-.40625 1.1673-.92853 1.6334-1.69671 2.5-2.46875 .073-.70889-.3757-1.25433.4062-2.03125-.3082-1.07193 1.6418-1.28536 1.9688-2.65625 .8337-.83402 1.259-1.85077 1.0312-3.6875 .5071-1.86734-.325-2.96727.3126-3.4375 .6131-.42508.2525-1.13452-.094-2.75l-.3125-.0625c.2361.66207-.041-.3723-.25.0625-.065-.10471-.057-.25787 0-.40625-.016-.0171-.023-.0698-.031-.15625 .1785-1.45014.7221-1.73904.9688-3-.131-.70779-.1549-1.05038-.2188-1.375v-.0312c-.4653-.0756-.9384-.14802-1.3437-.375-.2957-.16564-.6772-.25076-1.0937-.25zm1.7187,5.1875c.035.0367.073-.10887.125-.25-.058.0741-.093.16796-.125.25zm.125-.25c.1516-.19251.3888-.32758.625-.28125-.027-.27118-.1891-.46636-.4375-.125 .01-.0468 0-.071 0-.0937-.037.10079-.1186.31292-.1875.5zm.625-.28125c.017.17148-.01.35826-.094.46875 .231.10388.4797.3096.4687.46875-.01.0254.01.0402 0,.0625-.012-.004-.018.006-.031,0-.1499.58246.2563.15882.1563.0312 .1933-.061-.08-.67026-.125-.8125 .637-.14208-.2913-.27906-.2187-.15625-.05-.0277-.1064-.0527-.1563-.0625zm-.094.46875c-.1828-.0822-.3693-.0874-.375.0312 .1621.11334.2993.0638.375-.0312z" fill="url(#t)"/>
  <path d="m-1265.1875-759.15625c-.411.0163-1.8517,1.72023-2.1563,1.625-.0004.63168-.5327.16117-1.375.15625-.054.33955-.077.66816-.031,1-.2581,2.48631-.1857,3.41489.062,5.96875-.1801,2.0234 1.4966,4.98047 1.5937,6.3125 .8303,1.81199 1.3672,2.69418 1.625,4.625 .3724,1.15574.3187,4.13007 1.4376,5.09375 1.2428,1.43377 2.6205,2.33093 3.5312,4.21875 .3915.74157.7283,1.24564 1.3125,1.625 .4931-.49526 1.4327-.90658 1.6563-1.84375 .8337-.83402 1.259-1.85077 1.0312-3.6875 .5071-1.86734-.2938-2.96727.3438-3.4375 .6131-.42508.2525-1.10327-.094-2.71875l-.3125-.0625c.2361.66207-.041-.40355-.25.0312-.067-.10654-.06-.25531 0-.40625-.016-.0171-.054-.0698-.062-.15625 .1784-1.45014.7533-1.73904 1-3-.2621-1.41557-.1086-1.31421-.6875-2.6875-.4378-.64798-1.1624-2.05209-1.3125-3.90625-.5368-1.97524-1.663-.95154-1.375-2.125-.7943-1.20642-1.1776-1.20549-1.2812-2.71875-1.2434-.81141-.4787.4561-1.0938-.78125-.9536-.81777-.9901-1.82748-1.5312-1.59375-.5591-.8606-.78-.74174-1.9063-1.40625-.01-.0759-.066-.12733-.125-.125zm8.875,17.6875c-.053.0223-.1199.0634-.1875.15625 .01-.0608.0001-.0726 0-.0937-.04.10997-.1442.37445-.2188.5625 .1502-.21518.4019-.39364.6563-.34375-.024-.18749-.1144-.33873-.25-.28125zm.25.28125c.022.17586-.034.38496-.125.5 .2375.0995.5114.27221.5.4375-.01.0254.01.0402 0,.0625h-.031c-.1619.62917.3274.0712.125,0 .1836-.12937-.2365-.96271-.094-.78125 .637-.14208-.3225-.27906-.25-.15625-.042-.0209-.083-.0542-.125-.0625zm-.125.5c-.172-.0721-.3383-.11282-.3437,0 .1621.11334.2681.0951.3437,0z" fill="url(#s)"/>
  <path d="m-1234.1633-777.6763c.2836-.35259 1.1496,1.02831 1.5329,1.77431 .5063.93865-.1954,1.95852-.016,2.22633-.063.96531.5951,1.17092.9009,2.37454 .6372.78401.6826,1.00696 1.1256,2.13199-.1174.86131.0006.64234.5941,1.05175 .6097.45235.7817,1.19383.6669,2.06399 .3034,1.25091.3281,1.12697.883,1.99073 .863,1.20805.1163,2.86613.3981,2.51126-.3439.25547.3,1.2097.5921,2.38579 .2896.34485-.4264.79551-.1169,1.77996 .182,1.07832-.8084,2.23193-.9001,2.47517-.1077.20125.3179,1.41873.5924,1.84826-.4432.82662-.2917,1.43482-.5075,1.67491-.4284.91993-.4059,2.81346-.1774,3.12484 .3404.82705-.3952,1.9399-.39,2.06168 .044,1.76446-.021.8704.2333,1.25598 .3247.2921.4291-.41714.9723.17717-.077-.19282.01,1.29998.6875,1.07652 .6784.20331 1.3045-.81499 1.2341-.73579 .6321.3472.5324.27444 1.0733.74315 .092-.35878.6983.0164.7314.4295 .6852-.17353.773-.78472 1.1896-.25746-.026-.11041.1801-.079.8082-.26657 .3654.52044 1.0414-.0565.6487.0389-.3497.24266-.077.0189 1.2167.0556 .5142-.60929 1.3506-.095 2.313-.0791 .4272.36816.7893.20031 1.0216-.24242 .9053-.0149 1.4152-1.2878 2.1657-1.00268 .5586-.63142.5243.074 1.3493.26199 .884-.41043 1.0689.0911 1.7106-.49919 .9412-.37166.9113-.76255 1.66-.5341 1.3086-.48546.6383-.15291.8184-.5993-.1775.44802-.6716-1.30714-1.2933-1.83111-.7825-.36897-.4266-.74407-1.0147-.84134-.383.00076-.2965-1.99458-1.1632-2.53961-.3915-1.01234-.2728-.61508-1.1042-.99063-.1874-.90667-2.0593-1.44165-2.1033-1.87281-.6203-.0873-.5934-.33321-1.3149-1.16186-.835-.31769-1.0706-1.70446-1.3738-1.67365-.6443-1.41164-.4069-1.646-.6499-2.04314-.096-.48551-.7248.57171-.8409-.16344-.5427-.56186-1.4703-.85168-1.419-1.42908-.2366-.77279.1889.43699-.1111-.36359 0-.66072-.7236-.81436-1.2646-.74389-.072-.7299.4412-1.0092-.2153-1.33255 .01.0525-1.7104-.74496-1.5882-.83007 .073-.1173-.4229-.73616-.6272-.48876-.5321-1.02383-.5797-.27689-.6133-.77512 .3997-.0207-.9763-.4934-1.2801-1.71771 .1097-.39509-.4964-1.20433-.728-2.22047-.032-.11152-.4228.48061-.9391-.48672-.5904-.10733-.6294-2.42134-.8396-2.44372 .01-.24133-.1347-.79305-.8553-1.3598-.4692-.99029-1.3373-.34316-1.6565-1.30832-.3877-1.04662-.7788-.96481-.7896-1.75185-.5586-1.3953-.3272-1.32172-.7031-1.49272" fill="url(#r)" opacity=".5994"/>
  <path d="m-1238.5938-779.3125c-.085.0629-.1601.0878-.25.15625-1.5587.71523-2.7286.15401-3.4062,1.71875-.8976,1.88155-1.815,3.27798-3.0312,4.5-1.206,1.65007-1.1371,2.92792-1.4063,4.875-.041.14031-.079.26945-.125.40625 .2189,1.24826.6617,3.21665.8125,3.25 .4091.22239 1.3557,1.52024 1.3438,2.28125 .6795.20613.958.15111 2.2187.625 .1648.63453 1.2323,1.73661 1.6563,2.46875 .026.14159 1.778-.89675 2-.75-.032.33398 1.4399.053 2.3437.4375 .3273-.53327.3477-.49885.3437-.46875 .016.009.066-.0609.3438-.40625 1.1673-.92853 1.6334-1.69671 2.5-2.46875 .073-.70889-.3756-1.25433.4062-2.03125-.086-.2994.01-.50937.1876-.71875-.036-.26746-.051-.53875-.063-.8125-.7549-2.2454-.1286-3.20399-1-5.40625-.5445-2.38668-1.8223-2.68194-2.3124-4.53125-.9579-.85154-1.8876-1.90334-2.5626-3.125z" fill="url(#q)"/>
  <path d="m-973.03125-776.65625c-1.51488.80685-2.82549,1.21478-4.25.75-1.51792-.35066-3.74304.93138-4.75.84375-1.04681-.32117-4.08948,1.09705-5.8125,1.59375-1.62883-.0231-4.2302.60958-5.0625,1.1875-1.56312.61188-2.12905.18639-4.0625.9375-1.96742,1.09949-2.58889,1.60911-4.25005,1.46875-2.3462.29945-3.4805.4524-5.1562,1.0625-2.109.18748-2.3095.0676-3.7812,1.34375-1.5541.54692-3.889.17892-5.5626,1.375-2.6874-.50215-3.7232.40761-6.875.3125-2.795-.71182-5.6777.25272-7.9062.25-1.9192.72375-4.9639.8352-7.2188-.0312-2.5515-.12493-3.9725-.19346-7.0937-.0625-2.1378.0168-4.6808.41434-7.5.6875-3.2195.0278-5.2129.92832-7.9687.0937-2.4367-.79159-5.146-.75613-7.5938-.40625-2.4306-.0827-5.3314-.0452-7.5312.6875-2.7511.80882-3.8721.92747-6.0938.71875-2.8281.76007-4.437,1.19085-6.4375,1.8125-2.0545.55437-4.4825,1.77518-6.0625,2.90625-1.6553,1.12242-3.483,1.47939-5.5938,1.40625-2.596.73082-3.7427,1.7227-5.3437,2.09375-1.8582,1.55067-4.6916,1.99073-6.75,1.8125-2.0274.14409-4.0758,1.11661-6.1875,1.5625-2.0945,1.14031-4.0418-.10905-6.25.40625-2.699.3765-5.843,1.23022-8.3125.90625-2.7234.75757-4.42.34007-7.0625.4375-2.482-.76757-4.8582-1.61826-7.9375-1.0625-2.4991-.89892-4.5251-.33477-7.5625.34375-1.8902-.45904-5.3298.0564-7.9062-.0625-2.3113-.19841-5.3076-.20631-7.7188.0937-3.3614-.21917-5.3517-.3901-7.6875-.46875-2.3932-.90589-5.3743-.21981-8-.0625-3.5561.37451-7.2976,1.78789-10.9375,1.71875-1.2168-.098-2.4269-.0629-3.6562.0625 .5562.97748.9756,2.0222 1.1562,3.1875 .973,6.27832-8.3438,17.15625-8.3438,17.15625l280.93755-33.1875c0,0 5.93507-4.40251 8.09375-11.53125-.39607.0613-.79892.0857-1.1875-.0312-1.28959-.019-3.97992.16503-5.625,0-2.02458.028-3.70534-1.77013-4.78125-1.34375-1.08699-.56228-3.31122.51096-4.75.46875-1.27788-.11727-3.87333-.98284-5.53125-.28125-1.54852.006-3.8348-.23657-5.40625-.375-1.99566-.82021-3.58889.93067-4.96875.5-2.30805-.62181-3.38729.19317-5.0625-.71875-1.99322-.94569-3.14808-.17443-5.4375-.34375-2.43076.32963-3.97941,1.0226-5.34375.28125-2.10225.43241-4.35403-.13649-5.875-.5z" fill="#705538"/>
  <path d="m-947.61087-792.81988c-.0726-.4917-13.91539,1.87822-35.55601,2.38715-10.64321.4858-22.51022.58584-35.39602,1.62021-10.8692.89667-23.7514.60888-35.664,1.34554-11.7856.92702-22.3309,1.05434-34.5601,1.3458-11.8182.0483-24.8051,1.40906-36.1057,1.5414-12.5893.23313-23.4354.41434-34.5908,1.41909-13.3473.22559-25.928,2.17729-35.9063,2.27015-21.6186,1.4603-35.7128,1.29304-35.3647,1.5393 .1857.71983 1.5198,1.38228 1.9003,2.01638 .9521.49881 1.0405,2.16376 2.1325,3.02622 .2463.90271 2.1234,1.47549 2.5842,1.89772 .405,1.19939.2436,1.26459 1.2481,2.37009 .489.36145 1.4483,2.41121 1.9668,2.75917 .7194.32159 2.1339,1.45213 2.6637,2.71798 1.0103.52372 1.3232,1.39752 2.0821,1.689 1.0128,1.16539 1.3405,1.65777 1.6218,2.25429 .4601.254.5397,1.2773.2466,1.20255-.2182.41845.055-.67844.5365-.66599 .016-.4039.1453.77218-.09,1.15514-.2522.35129.3447-.0928.094-.26951 .4196.3665.1392.35301.4896.81772-.2223.39636.4848-1.2654.5524-.68353 .3803-.26298.7525,1.16873.5179.96262-.094-.36063-.7122.13497-.4278-.22385-.3509-.24022 13.6046-.75976 34.1439-2.82305 9.6219-.39156 22.3048-1.09406 34.5467-1.89233 10.5454-1.29105 22.6764-2.60033 34.1899-3.25676 10.9155-1.29382 21.9928-1.68176 33.4556-2.0822 11.6279-1.35355 22.6669-2.29736 33.9938-2.73412 12.1803-1.20871 23.6119-1.40791 34.0831-2.63987 13.00662-1.0683 25.17567-2.60009 34.6613-3.27772 20.53978-2.06362 33.66492-1.70167 33.93191-2.07397 .26108-.37882.94851-.49338 1.60262-1.25318 .1417.15356-.12899.16063.75936-.33676 .098-.0269 1.5347-.33845 1.70655-.30439 .86908-.28259.94123-1.30961 1.77894-1.70422 .76977-.005.46928-1.24701.98453-1.13253 .81006-.29303 1.21813-1.04622 1.41648-.9876 .63198-.20341-.26553.0425.0911-.78263 .0227-1.00281.17006-1.08736-.51358-1.65058 .01-.25488-.25792-1.55591-1.19811-2.40554-.59907-.856-1.88701-.48951-2.24046-.93263-1.01253-.45909-.64469.5542-1.50964-.12133-.29749-.28578-1.66804-1.34659-2.25801-1.02842-1.1165-.0839-1.83625.89454-2.25026.43358-.71466.37125-1.33078-1.1123-1.9255-.71535-.42336.0486-1.41511-.22656-2.3244.0707-.97668-.38091-2.93914-1.05535-2.53914-1.05529-.30014.33052.0201.91964-.27914.5879 .31117-.31419 1.00179.32028.6018.31692-.35899-.22053.14253-.57791-.15012-.91877 .0139-.49969-.58456.29619-.23829.0459 .38964.11305.42158-.40777.14229-.0498-.0908.48695.1724.98821-.2189.88452-.0296.49862.0697-.23579-.0488-.71332 .18129-.4457.21765.25271.0332.69635" fill="url(#ab)"/>
  <path d="m-983.5-794.66-2.7188 0.0937c-3.2427 6.3017-6.4754 12.605-9.7188 18.906-3.8374 7.456-7.6629 14.918-11.5 22.375l2.9063-0.34375c1.2759-2.487 2.5359-4.9817 3.8124-7.4688 5.7421-11.187 11.474-22.377 17.219-33.562zm-168.72 5.8438-4.7187 0.1875c27.41 14.426 54.82 28.84 82.219 43.281l4.1563-0.5c-27.218-14.312-54.443-28.645-81.656-42.969zm-45.312 1.5938-4.0313 0.125c23.693 16.106 47.376 32.228 71.062 48.344l3.625-0.4375c-23.555-16.006-47.108-32.015-70.656-48.031z" fill="#705538" opacity=".7164"/>
 </g>
</svg>
