<?xml version="1.0" encoding="UTF-8"?>
<svg id="svg8" xmlns="http://www.w3.org/2000/svg" viewBox="0 0 175.42 249.45">
  <defs>
    <style>
      .cls-1 {
        fill: #f8ce0d;
      }

      .cls-2 {
        fill: #f98203;
      }

      .cls-3 {
        fill: #eab10d;
      }

      .cls-4 {
        fill: #ef5e05;
      }

      .cls-5 {
        fill: #ff3;
      }

      .cls-6 {
        fill: #fca704;
      }

      .cls-7 {
        fill: #f0c206;
      }

      .cls-8 {
        fill: #fbd008;
      }

      .cls-9 {
        fill: #f60;
      }

      .cls-10 {
        fill: #86290b;
      }

      .cls-11 {
        fill: #a00;
      }

      .cls-12 {
        fill: #d54307;
      }

      .cls-13 {
        fill: #d98f08;
      }

      .cls-14, .cls-15 {
        fill: #0e1217;
      }

      .cls-16 {
        fill: #70382d;
      }

      .cls-17 {
        fill: #572921;
      }

      .cls-18 {
        fill: #602e24;
      }

      .cls-19 {
        fill: #602d24;
      }

      .cls-15 {
        stroke: #fca704;
        stroke-miterlimit: 10;
        stroke-width: 3px;
      }
    </style>
  </defs>
  <path class="cls-15" d="m167.56,247.58l-159.14.37c-3.53,0-6.38-2.85-6.38-6.4L1.5,8.3c0-3.55,2.83-6.42,6.35-6.43l159.14-.37c3.53,0,6.38,2.85,6.38,6.4l.54,233.16c.11,3.55-2.83,6.52-6.35,6.53Z"/>
  <path class="cls-14" d="m60.86,208.83c-.5,0-1.2-.7-1.6.2-.6.1-1.3,0-1.9.2-2.4.7-4.8,1.6-7.3,2.3-2,.6-3.2,2-2.7,3.6.5,1.7,1,3.5,1.5,5.2.7,2.2.9,2.7,3.8,2.5.5,0,1-.3,1.6-.5,2.1-.6,4.1-1.2,6.2-1.9,2.3-.7,4.6-1.4,7-2.1,1.7-.5,3.3-1.1,5-1.6,1.5-.5,2.9-.9,4.4-1.4.4-.2.7-.3,1.1-.5h.5c1.2-.3,2.4-.7,3.6-1,.4-.1.7-.2,1.1-.2,1.6-.4,3.1-.8,4.7-1.2,2.2.7,4.5,1.3,6.7,2,2.7.8,5.4,1.6,8.1,2.4,2.3.7,4.7,1.4,7,2,1.8.5,3.6,1,5.4,1.6,2.3.7,4.5,1.6,6.8,2.2,2.2.6,3.2,0,4-2,.2-.6.4-1.2.6-1.9.4-1.6.8-3.2.9-4.8,0-.6-.5-1.7-1.1-1.9-2.2-.8-4.5-1.4-6.8-2.1-2-.6-4-1.3-6-1.9-2-.6-4-1.1-6-1.6.1-.1.2-.4.4-.4,1.5-.5,2.9-.9,4.4-1.4,2.2-.7,4.5-1.4,6.7-2.1,2.5-.8,5-1.6,7.4-2.4,1-.4,1.5-1.8,1.2-2.7-.7-2.1-1.4-4.2-2-6.3-.4-1.5-1.7-2.1-3.2-1.6-.4.1-1-.1-1.5-.2.9-.8,1.7-1.7,2.6-2.5,2.2-1.9,2.4-4.4.3-6.4-7-6.7-14.1-13.4-21.1-20.1-1.5-1.4-3.6-1.8-5.3-1-.4.2-.7.3-1.1.5-.2-.1-.4-.1-.6-.2-1.8-1.7-3.6-3.4-5.4-5.2-.1-.1-.1-.4-.2-.5,1-.2,2.1-.2,3-.6.6-.2.9-1.1,1.4-1.5,1.2-1.1,2.5-2,3.6-3.1,2.4-2.3,4.7-4.7,7-7,1.2-1.2,1.2-2.3,0-3.5-4-3.8-8.1-7.7-12.1-11.5-1.2-1.2-2.4-1.2-3.7,0-4.1,3.9-8.2,7.7-12.3,11.6-1,.9-.9,2.3,0,3.2,1,1,2,2,3.1,2.9,1.7,1.5,3.3,3,5,4.5-.3.2-.7.3-1,.5-1.5-.2-2.7.6-3.7,1.5-1.6,1.4-3.1,2.9-4.6,4.4-4.4,4.2-8.8,8.5-13.2,12.7-2,1.9-2.2,3.8-.2,5.8.2.2.3.5.5.8-1.8,1.7-3.7,3.5-5.5,5.2-.8.8-1.8,1.5-2.4,2.5-1.6,2.2-1,4.7,2.3,6.6.2.3.3.7.6,1,.4.5.8,1,1.2,1.5-.5,0-1,.1-1.5-.1-1.7-.5-3.4-1-5.1-1.5-1.9-.5-2.8.1-3.3,1.9-.5,1.8-.9,3.6-1.5,5.4-.6,1.7-.2,3,1.5,3.6,3.8,1.2,7.6,2.4,11.4,3.5,2.1.7,4.3,1.3,6.4,2-.2.2-.5.4-.7.5-.8.3-1.6.7-2.4,1-.3,0-.6-.1-.7,0-.7.4-1.9,0-2.3,1.1h0Z"/>
  <path class="cls-2" d="m56.84,191.52c-4.57-2.66-5.26-6.16-3.19-9.24.83-1.26,2.22-2.38,3.32-3.5,2.49-2.38,5.13-4.9,7.62-7.28.28-.28.55-.42.83-.7.14.28.55.84.42.98-.69,1.12-.14,1.68.83,2.38.55.28.69,1.12.83,1.68.14.42,0,.84,0,1.4,1.52-1.26,1.94-1.12,4.02,1.4-.28.56-.55,1.12-.83,1.54.14.14.28.14.42.28.55-.42,1.11-.84,1.39-1.12,1.39,1.12,2.49,2.1,3.88,3.22,0,0-.28.56-.14.98.55,1.96,2.63.14,3.6,1.4-.42,2.8-.28,2.94,2.91,3.36.28,0,.69.7.69,1.12.14.28-.14.7-.28,1.12,3.19-.14,3.19,3.22,5.4,4.06-.14.42-.28.84-.55,1.54,2.22-.7,2.49-.56,2.35,1.68,0,.42.55,1.12.83,1.12.83,0,1.66-.14,2.63-.42-.28,2.1.28,3.36,2.63,3.36.55,0,1.11.84,1.66,1.26-.28.7-.55,1.4-.69,2.1-.69-.28-1.39-.42-2.08-.7h0c-.42-.28-.97-.42-1.39-.7-.83-.7-3.32.7-2.49-1.96-1.11.14-2.22.56-3.05.28s-1.39-1.4-1.94-2.1c-.28.28-.55.84-.83.84-1.66-.14-3.46.28-4.71-1.54-.42-.56-1.66-.98-2.22-.84-1.8.84-3.05-.14-4.29-.84-.97-.56-1.52-.28-3.05-.84-.14-.14-.55-.14-.83-.28-.55-.28-1.25-.56-1.8-.84-.55-.42-.83-1.12-1.94-.28-.28.14-.97.14-1.25,0-1.25-.84-2.35-1.68-3.46-2.52"/>
  <path class="cls-14" d="m75.16,52.33c.6.6.9,1.2,1.1,1.2.5-.1.9-.5,1.4-.8-.3-.4-.6-.9-1-1-.3-.2-.7.2-1.5.6Z"/>
  <path class="cls-14" d="m87.36,114.13c-.1,1.7-.1,1.8,1.6,1.5.2-1.5,0-1.7-1.6-1.5Z"/>
  <path class="cls-14" d="m75.16,58.63c.2.2.4.4.6.5.5-.4,1.2-.6,1.4-1.1.3-.6-.4-1.1-1-.8-.4.3-.6.9-1,1.4Z"/>
  <path class="cls-14" d="m90.96,33.43h-.5c-.2.4-.5.7-.5,1.1.1.3.6.8.8.7.4-.1.8-.5.9-.9,0-.2-.4-.6-.7-.9Z"/>
  <path class="cls-16" d="m57.56,191.33l3.71,1.11c2.4.69,4.7,1.39,7.1,2.08,2.3.69,4.6,1.29,6.9,1.99,3.5,1.09,7,2.18,10.6,3.28.8.2,1.6.3,2.4.5.1.1.1.4.2.4,2,.5,3.9,1.09,5.9,1.59,1,.3,1.9.6,2.8.89.9.3,1.8.79,2.8.99,1.4.4,2.8.79,4.2,1.19.4.1.7.2,1.1.3.9.3,1.7.69,2.6,1.09-.1.1-.1-.1,0-.2,2,.5,4,.99,6,1.59s4,1.19,6,1.89c2.3.69,4.6,1.29,6.8,2.08.6.2,1.1,1.29,1.1,1.89-.1,1.59-.6,3.18-.9,4.76-.1.6-.3,1.19-.6,1.89-.8,1.99-1.8,2.58-4,1.99-2.3-.69-4.5-1.49-6.8-2.18-1.8-.6-3.6-1.09-5.4-1.59-2.3-.69-4.7-1.29-7-1.99-2.7-.79-5.4-1.59-8.1-2.38l-33.9-10.22c-3.8-1.19-7.6-2.28-11.4-3.47-1.7-.5-2.1-1.79-1.5-3.57s1-3.57,1.5-5.36c.5-1.79,1.3-2.38,3.3-1.89,1.7.4,3.4.99,5.1,1.49"/>
  <path class="cls-10" d="m84.48,150.13c-1.7-1.5-3.3-3-5-4.5-1-1-2.1-2-3.1-2.9-1-1-1-2.3,0-3.2,4.1-3.9,8.2-7.8,12.3-11.6,1.2-1.2,2.4-1.2,3.7,0,4,3.8,8.1,7.6,12.1,11.5,1.2,1.2,1.2,2.3,0,3.5-2.3,2.3-4.6,4.7-7,7-1.1,1.1-2.4,2-3.6,3.1-.5.5-.8,1.3-1.4,1.5-.9.4-2,.4-3,.6-.6-.5-1.2-1-1.8-1.4-.4-1.9-2-2.6-3.2-3.6Z"/>
  <path class="cls-12" d="m90.78,154.37c1.8,1.7,3.6,3.5,5.4,5.2.1.1.4.2.6.2v.2c-2.9.9-4.6,3.2-6.5,5.2-.9.2-1.5-.2-2.1-.8-1.3-1.3-2.7-2.5-4-3.8-1.9-1.8-4.4-1.8-6.3,0-4.4,4.2-8.8,8.4-13.2,12.5-.1.4-.3.8-.6,1.1-.2.2-.4.3-.6.5-.2-.3-.3-.5-.5-.8-1.9-2-1.8-3.8.2-5.8,4.4-4.2,8.8-8.4,13.2-12.7,1.5-1.5,3-3,4.6-4.4,1-.9,2.1-1.7,3.7-1.5,1.4,1,2.8,2,4.1,3"/>
  <path class="cls-19" d="m90.15,213.01c-1.7.54-8.38,1.61-10.09,2.14-1.93.54-3.74,1.18-5.67,1.72-2.61.75-5.22,1.51-7.94,2.26-2.38.65-4.76,1.29-7.03,2.04-.57.21-1.13.43-1.81.54-3.18.22-3.52-.3-4.33-2.64-.69-1.8-1.15-3.71-1.73-5.51-.57-1.7.67-3.19,3.05-3.83,2.61-.66,7.06-1.53,13.01-3.6"/>
  <path class="cls-18" d="m122.46,189.53c1.5-.5,2.8.1,3.2,1.6.6,2.1,1.3,4.2,2,6.3.18.53-.26,1.77-1.2,2.7-.87.86-1.97,1.04-2.42,1.13-1.33.24-4.58,1.27-11.08,3.33-1.23.39-3.11,1.04-5.39,2.05-.44-.11-.92-.26-1.44-.45-.47-.18-.89-.36-1.26-.55-.3-.1-.7-.2-1.1-.3-1.4-.4-2.8-.7-4.2-1.2-.9-.3-1.8-.7-2.8-1-.9-.3-1.9-.6-2.8-.9-2-.5-3.9-1.1-5.9-1.6-.1,0-.2-.3-.2-.4v-.2c.7-.2,1.4-.3,2.1-.5,1.9-.6,3.8-1.2,5.7-1.8,1.6-.5,3.1-1,4.6-1.5.8-.2,1.6-.3,2.3-.5.8-.3,1.6-.6,2.3-1,1.2-.3,2.4-.6,3.6-1"/>
  <path class="cls-4" d="m96.36,160.13v-.2c.4-.2.7-.3,1.1-.5,1.7-.8,3.8-.4,5.3,1,7,6.7,14.1,13.4,21.1,20.1,2.1,2,2,4.5-.3,6.4-.9.8-1.7,1.7-2.6,2.5-3.8,2.4-8.3,2.9-12.5,4.4-1.2.4-2.4.6-3.6,1,.3-.3.5-.7.8-.9,3.8-3.6,7.6-7.2,11.4-10.8.7-.7,1.1-2.6.6-3.3-.5-.8-1.1-1.5-1.8-2.2-5.3-5.1-10.6-10.2-16-15.2-.9-.9-2.3-1.5-3.5-2.3Z"/>
  <path class="cls-7" d="m77.66,81.73c-.3.2-.3.9-.7.3-.1-.1-.1-.6,0-.7.3-.3.5,0,.7.4Z"/>
  <path class="cls-10" d="m75.16,52.33c.7-.3,1.2-.8,1.5-.7.4.1.7.7,1,1-.4.3-.9.7-1.4.8-.1.1-.5-.5-1.1-1.1Z"/>
  <path class="cls-3" d="m87.36,114.13c1.6-.2,1.8.1,1.6,1.5q-1.7.2-1.6-1.5Z"/>
  <path class="cls-6" d="m95.66,159.63c1.29.75,3.55,1.44,4.63,2.51,5.81,5.34,11.5,10.78,17.2,16.23.75.75,1.4,1.49,1.94,2.35.54.75.11,2.78-.65,3.52-4.09,3.84-8.17,7.69-12.26,11.53-.32.32-.54.64-.86.96-.86.32-1.61.75-2.47,1.07-.75.21-1.61.32-2.47.53-1.61-1.6-3.33-3.2-4.95-4.91-.97-.96-1.51-.85-2.47,0-1.51,1.49-3.23,2.88-4.84,4.38l-1.08-1.07-.54-.53c-2.26-2.24-4.62-4.48-6.88-6.73-.32-.32-.65-.64-.97-.96-1.29-1.17-2.58-2.24-3.76-3.42v-.32c-.11-.11-.22-.11-.22-.21h-.32c-.43-.53-1.08-.96-1.08-1.49-.11-1.71.11-3.2,1.61-4.48,2.26-2.03,4.41-4.16,6.67-6.3,2.58-2.46,5.27-4.8,7.85-7.26,1.72-1.92,2.79-4.43,5.91-5.39Z"/>
  <path class="cls-1" d="m74.76,57.63c.1-.3.2-.7.4-.8.2-.2.5.1.4.5-.1.3-.4.4-.6.7-.1-.1-.2-.3-.2-.4Z"/>
  <path class="cls-13" d="m90.96,33.43c.2.3.7.7.7,1s-.5.8-.9.9c-.2.1-.8-.4-.8-.7-.1-.3.3-.7.5-1.1.2-.1.3-.1.5-.1Z"/>
  <path class="cls-8" d="m85.87,199.78c.24-.51,1.01-1.66,1.13-2.17.72-.51,1.32-1.02,1.92-1.53,1.8-1.43,3.71-2.76,5.39-4.19.96-.82,1.68-1.02,2.75,0,1.8,1.63,3.71,3.17,5.51,4.7-1.8.51-3.71,1.02-5.51,1.53-2.27.61-6.31,1.94-8.59,2.55"/>
  <path class="cls-2" d="m89,195.93c-.54.52-1.26,1.01-1.92,1.53-.44-.31-.09-.47-.53-.47-1.85,0-2.18-1.04-2.07-2.49-.76.1-1.42.31-2.07.31-.22,0-.76-.52-.65-.83.11-1.66,0-1.76-1.85-1.24.11-.52.33-.83.44-1.14-1.74-.52-1.85-3.11-4.25-3,.11-.31.33-.62.22-.83-.11-.31-.33-.83-.54-.83-2.5-.31-2.72-.41-2.29-2.49-.65-.93-2.4.52-2.83-1.04-.11-.31.11-.72.11-.72-1.09-.83-1.96-1.55-3.05-2.38-.22.21-.65.52-1.09.83-.11-.1-.22-.1-.33-.21.22-.41.44-.83.65-1.14-1.63-1.76-1.96-1.97-3.16-1.04,0-.41.11-.72,0-1.04-.11-.41-.33-1.04-.65-1.24-.76-.52-1.2-.83-.65-1.76.11-.1-.22-.52-.33-.72.22-.31.54-.72.76-.93,4.79-4.35,9.58-8.7,14.38-12.94,2.07-1.86,4.79-1.86,6.86,0,1.42,1.35,2.94,2.59,4.36,3.94.65.62,1.1.37,2.08.16-2.61,2.28-5.13,5.32-7.74,7.71-2.29,1.97-4.47,4.14-6.75,6.11-1.42,1.24-1.74,2.69-1.63,4.35,0,.52.76.93,1.09,1.45,1.01.83,2.54,2.13,4.36,3.83.47.44.8.76.98.93"/>
  <path class="cls-17" d="m76.96,213.53c-.1.1-.2.2-.3.4-.1,0-.1-.1-.2-.1.2-.1.3-.2.5-.3h0Z"/>
  <path class="cls-14" d="m130.96,65.03c-.6-.8-1.2-1.6-2.1-.8-.3.2-.3,1.2,0,1.5,1.1,1.2,1.3-.2,2.1-.7Z"/>
  <path class="cls-14" d="m59.76,25.53c-.6-.8-1.2-1.6-2.1-.8-.3.2-.3,1.2,0,1.5,1.1,1.2,1.4-.3,2.1-.7Z"/>
  <path class="cls-7" d="m58.56,24.93c-.3.2-.5.9-1,.4-.1-.1-.1-.6,0-.8.4-.3.7,0,1,.4Z"/>
  <path class="cls-7" d="m103.06,21.43c-.9.5-1.2,2.1-2.6.8-.4-.3-.3-1.4,0-1.7,1.1-.8,1.9,0,2.6.9Z"/>
  <path class="cls-14" d="m61.46,94.03c-.6-.8-1.2-1.6-2.1-.8-.3.2-.3,1.2,0,1.5,1.1,1.2,1.3-.3,2.1-.7Z"/>
  <path class="cls-7" d="m60.06,92.93c.5.6,2,.7,1,2-.2.3-1.2.4-1.5.2-.8-.8-.2-1.5.5-2.2Z"/>
  <path class="cls-3" d="m95.86,76.93c1.6-.2,1.8.1,1.6,1.5-1.7.3-1.7.2-1.6-1.5Z"/>
  <path class="cls-5" d="m95.56,39.43c-.5,0-.6,0-.5.3q.6,0,.5-.3Z"/>
  <path class="cls-3" d="m102.56,56.83c.5-.1.5,0,.5.7q-.5.1-.5-.7Z"/>
  <path class="cls-9" d="m140.16,36.83c.3-.5.6-1.2,1-1.4.6-.3,1.2.2,1,.8-.2.5-.9.7-1.4,1.1-.2-.1-.4-.3-.6-.5Z"/>
  <path class="cls-1" d="m128.66,51.43c.3-.5.6-1.2,1-1.4.6-.3,1.2.2,1,.8-.2.5-.9.7-1.4,1.1-.2-.1-.4-.3-.6-.5Z"/>
  <path class="cls-5" d="m112.66,90.03c.7-.4,1.1-.9,1.4-.8.4.2.6.8.9,1.2-.4.3-.8.8-1.2,1-.3.1-.6-.6-1.1-1.4Z"/>
  <path class="cls-3" d="m49.16,65.73c1.6-.2,1.8.1,1.6,1.5-1.7.3-1.7.2-1.6-1.5Z"/>
  <path class="cls-9" d="m38.76,36.83c-.6.3-.8,1.4-1.7.5-.2-.2-.2-.9,0-1.1.8-.6,1.3,0,1.7.6Z"/>
  <path class="cls-11" d="m68.46,114.33c.7-.3,1.2-.8,1.5-.7.4.1.7.7,1,1-.4.3-.9.7-1.4.8-.2.1-.5-.5-1.1-1.1Z"/>
  <path class="cls-1" d="m74.96,45.03c.3-.5.6-1.2,1-1.4.6-.3,1.2.2,1,.8-.2.5-.9.7-1.4,1.1-.2-.1-.4-.3-.6-.5Z"/>
  <path class="cls-5" d="m117.06,127.33c.7-.4,1.1-.9,1.4-.8.4.2.6.8.9,1.2-.4.3-.8.8-1.2,1-.2,0-.5-.7-1.1-1.4Z"/>
  <path class="cls-10" d="m57.66,153.73c1.2.2,1,1.1.7,2.1-.8-.3-2.1.4-1.9-1.2"/>
  <path class="cls-7" d="m48.06,131.33c.2.7-.4.9-1,1-.1-.5-.8-1,.1-1.4"/>
  <path class="cls-4" d="m114.96,164.83c.9-.8,1.5,0,2.1.8-.7.4-1,1.9-2.1.7"/>
</svg>